<svg xmlns="http://www.w3.org/2000/svg" viewBox="0 0 512 512">
  <path d="M333.283,307.117c8.807-6.02,21.023-11.23,21.023-11.23s-34.768,6.29-69.357,9.165c-42.315,3.503-87.775,4.221-110.595,1.167-53.996-7.187,29.647-27.044,29.647-27.044s-32.433-2.154-72.413,17.07c-46.166,21.788,117.795,32.209,202.695,9.839z" fill="#5382A1"/>
  <path d="M256.56,278.277c-17.07-38.362-74.659-72.054,0-130.99C349.727,73.797,301.93,26,301.93,26c19.316,75.917-67.92,98.917-99.456,146.084-21.473,32.253,12.512,66.843,56.086,106.193z" fill="#F8981D"/>
  <path d="M359.518,119.975c0.09,0-157.403,39.351-82.205,125.958,22.191,25.516-5.84,48.516-5.84,48.516s56.332-29.108,30.457-65.495c-25.168-33.461-43.676-50.351,57.588-108.479z" fill="#F8981D"/>
  <path d="M354.039,362.999c-0.449,1.078-1.797,2.247-1.797,2.336,115.266-30.277,72.861-106.824,17.787-87.416-4.852,1.707-7.365,5.66-7.365,5.66s3.053-1.259,9.883-2.696c36.849-4.839,76.83,38.285-9.508,83.116z" fill="#5382A1"/>
  <path d="M396.443,418.971c0,0,13.027,10.692-14.285,19.047-52.018,15.722-216.339,20.483-261.979,0.63-16.441-7.099,14.374-17.072,24.078-19.137,10.061-2.157,15.901-1.799,15.901-1.799-18.238-12.847-117.963,25.247-50.671,36.119,81.558,13.176,232.674-30.038,185.056-51.51z" fill="#5382A1"/>
  <path d="M195.557,381.776c-70.706,19.766,43.035,60.555,133.055,22.011-14.732-5.748-25.334-12.397-25.334-12.397-40.16,7.637-58.756,8.175-95.233,4.043-30.527-3.414-12.918-13.657-12.918-13.657z" fill="#5382A1"/>
  <path d="M357.092,469.103c-70.705,13.296-157.941,11.771-209.602,3.233,0-0.088,10.602,8.716,65.046,12.22,82.834,5.302,210.051-2.966,213.016-42.136,3.047-39.093-2.703-24.268-65.414-12.41z" fill="#5382A1"/>
  <path d="M317.922,343.144c-53.188,10.243-84.003,9.973-122.904,5.93-30.098-3.145-10.422-17.698-10.422-17.698-77.982,25.874,43.304,55.164,152.281,23.269,9.453-3.044,2.086-10.501,2.086-10.501z" fill="#5382A1"/>
</svg>